<svg width="29" height="30" viewBox="0 0 29 30" fill="none" xmlns="http://www.w3.org/2000/svg">
<path d="M14.375 0C6.43571 0 0 6.71552 0 15C0 23.2845 6.43571 30 14.375 30C22.3143 30 28.75 23.2845 28.75 15C28.75 6.71552 22.3143 0 14.375 0ZM14.375 26.129C8.48067 26.129 3.70968 21.1518 3.70968 15C3.70968 8.84939 8.47951 3.87097 14.375 3.87097C20.2693 3.87097 25.0403 8.84819 25.0403 15C25.0403 21.1506 20.2705 26.129 14.375 26.129ZM14.375 7.25806C10.2775 7.25806 6.95565 10.7244 6.95565 15C6.95565 19.2756 10.2775 22.7419 14.375 22.7419C18.4725 22.7419 21.7944 19.2756 21.7944 15C21.7944 10.7244 18.4725 7.25806 14.375 7.25806ZM14.375 18.871C12.3295 18.871 10.6653 17.1345 10.6653 15C10.6653 12.8655 12.3295 11.129 14.375 11.129C16.4205 11.129 18.0847 12.8655 18.0847 15C18.0847 17.1345 16.4205 18.871 14.375 18.871Z" fill="white"/>
</svg>
