<svg width="50" height="37" viewBox="0 0 50 37" fill="none" xmlns="http://www.w3.org/2000/svg">
<path d="M48.9679 13.769C47.842 12.9878 45.2618 12.6948 43.2446 13.0854C43.01 11.1324 41.931 9.42345 40.0545 7.90984L38.9755 7.12862L38.2249 8.25162C37.2866 9.71641 36.8175 11.7671 36.9582 13.7202C37.0052 14.4037 37.2397 15.6244 37.9434 16.6985C37.2866 17.0892 35.9262 17.5774 34.1435 17.5774H0.225541L0.131715 17.968C-0.196674 19.9211 -0.196674 26.0243 3.65017 30.7117C6.55877 34.276 10.8747 36.0825 16.5512 36.0825C28.8423 36.0825 37.9434 30.1746 42.2125 19.4816C43.9013 19.5305 47.5136 19.4816 49.3432 15.8197C49.3901 15.722 49.484 15.5267 49.8124 14.7943L50 14.4037L48.9679 13.769ZM27.3411 0H22.1807V4.88262H27.3411V0ZM27.3411 5.85914H22.1807V10.7418H27.3411V5.85914ZM21.2425 5.85914H16.0821V10.7418H21.2425V5.85914ZM15.1438 5.85914H9.9834V10.7418H15.1438V5.85914ZM9.04514 11.7183H3.88474V16.6009H9.04514V11.7183ZM15.1438 11.7183H9.9834V16.6009H15.1438V11.7183ZM21.2425 11.7183H16.0821V16.6009H21.2425V11.7183ZM27.3411 11.7183H22.1807V16.6009H27.3411V11.7183ZM33.4398 11.7183H28.2794V16.6009H33.4398V11.7183Z" fill="#2396ED"/>
</svg>
