<svg width="30" height="30" viewBox="0 0 30 30" fill="none" xmlns="http://www.w3.org/2000/svg">
<path d="M27.3376 14.375C26.5376 12.9875 22.1376 6.02496 14.6626 6.24996C7.75008 6.42496 3.75009 12.5 2.66259 14.375C2.55288 14.565 2.49512 14.7805 2.49512 15C2.49512 15.2194 2.55288 15.4349 2.66259 15.625C3.45009 16.9875 7.66259 23.75 15.0251 23.75H15.3376C22.2501 23.575 26.2626 17.5 27.3376 15.625C27.4473 15.4349 27.5051 15.2194 27.5051 15C27.5051 14.7805 27.4473 14.565 27.3376 14.375ZM15.2751 21.25C9.88759 21.375 6.37508 16.7625 5.27508 15C6.52508 12.9875 9.78759 8.87496 14.7876 8.74996C20.1501 8.61246 23.6751 13.2375 24.7876 15C23.5001 17.0125 20.2751 21.125 15.2751 21.25Z" fill="white"/>
<path d="M15 10.625C14.1347 10.625 13.2888 10.8816 12.5694 11.3623C11.8499 11.8431 11.2892 12.5263 10.958 13.3258C10.6269 14.1252 10.5403 15.0049 10.7091 15.8535C10.8779 16.7022 11.2946 17.4817 11.9064 18.0936C12.5183 18.7054 13.2978 19.1221 14.1465 19.2909C14.9951 19.4597 15.8748 19.3731 16.6742 19.042C17.4737 18.7108 18.157 18.1501 18.6377 17.4306C19.1184 16.7112 19.375 15.8653 19.375 15C19.375 13.8397 18.9141 12.7269 18.0936 11.9064C17.2731 11.0859 16.1603 10.625 15 10.625ZM15 16.875C14.6292 16.875 14.2667 16.765 13.9583 16.559C13.65 16.353 13.4096 16.0601 13.2677 15.7175C13.1258 15.3749 13.0887 14.9979 13.161 14.6342C13.2334 14.2705 13.412 13.9364 13.6742 13.6742C13.9364 13.412 14.2705 13.2334 14.6342 13.161C14.9979 13.0887 15.3749 13.1258 15.7175 13.2677C16.0601 13.4096 16.353 13.65 16.559 13.9583C16.765 14.2666 16.875 14.6292 16.875 15C16.875 15.4973 16.6775 15.9742 16.3258 16.3258C15.9742 16.6775 15.4973 16.875 15 16.875Z" fill="white"/>
</svg>
