<svg width="30" height="29" viewBox="0 0 30 29" fill="none" xmlns="http://www.w3.org/2000/svg">
<path d="M15 0.000767672C11.0638 -0.0392306 7.27279 1.48523 4.46009 4.23912C1.64739 6.99301 0.043173 10.751 0 14.6871C0.0151669 17.7978 1.01583 20.8237 2.85827 23.3301C4.7007 25.8365 7.2901 27.6944 10.2545 28.6371C11.0045 28.7735 11.2773 28.3235 11.2773 27.928C11.2773 27.5326 11.2773 26.6599 11.2773 25.4326C7.10455 26.3189 6.21818 23.4689 6.21818 23.4689C5.9404 22.5743 5.34986 21.8095 4.55455 21.3144C3.19091 20.4144 4.66364 20.428 4.66364 20.428C5.13498 20.4911 5.58594 20.66 5.98269 20.9221C6.37945 21.1842 6.71171 21.5328 6.95455 21.9417C7.37773 22.6755 8.07209 23.2138 8.8882 23.4408C9.7043 23.6678 10.5769 23.5652 11.3182 23.1553C11.3944 22.4086 11.7326 21.7129 12.2727 21.1917C8.94545 20.8235 5.45455 19.5689 5.45455 13.9371C5.42479 12.4681 5.9676 11.045 6.96818 9.96895C6.51249 8.70768 6.5663 7.31847 7.11818 6.09622C7.11818 6.09622 8.38636 5.70077 11.2091 7.59622C13.6662 6.94146 16.252 6.94146 18.7091 7.59622C21.5727 5.70077 22.8 6.09622 22.8 6.09622C23.3519 7.31847 23.4057 8.70768 22.95 9.96895C23.9738 11.0253 24.5461 12.4388 24.5455 13.9099C24.5455 19.5553 21.0273 20.7962 17.7273 21.1644C18.0886 21.5152 18.3677 21.9418 18.5446 22.4133C18.7214 22.8849 18.7916 23.3898 18.75 23.8917V27.9144C18.75 27.9144 19.0227 28.7735 19.7727 28.6235C22.7288 27.675 25.3094 25.8165 27.1462 23.3137C28.9829 20.8108 29.9817 17.7916 30 14.6871C29.9568 10.751 28.3526 6.99301 25.5399 4.23912C22.7272 1.48523 18.9362 -0.0392306 15 0.000767672Z" fill="white"/>
</svg>
