<svg width="43" height="48" viewBox="0 0 43 48" fill="none" xmlns="http://www.w3.org/2000/svg">
<path d="M40.4552 10.5469L23.0967 0.46765C22.002 -0.155883 20.5766 -0.155883 19.4732 0.46765L1.92925 10.5469C0.799492 11.1968 0 12.4183 0 13.7248V33.8566C0 35.1631 0.820356 36.385 1.95012 37.0384L6.58528 39.6711C8.80071 40.7623 9.58367 40.7623 10.5918 40.7623C13.872 40.7623 15.7458 38.7787 15.7458 35.319V15.4439C15.7458 15.1632 15.5997 14.7455 15.3242 14.7455H13.1107C12.8305 14.7455 12.203 15.1632 12.203 15.4435V35.3186C12.203 36.8522 10.8158 38.3784 8.22324 37.0821L3.43376 34.3215C3.26686 34.2309 3.14916 34.0487 3.14916 33.8566V13.7248C3.14916 13.5351 3.36763 13.3446 3.53572 13.2473L21.023 3.18537C21.1863 3.09287 21.4265 3.09287 21.5894 3.18537L38.8633 13.245C39.0287 13.3446 38.9704 13.5292 38.9704 13.7248V33.8566C38.9704 34.0487 39.0425 34.2357 38.8791 34.3282L21.5249 44.396C21.3761 44.4854 21.1915 44.4854 21.0285 44.396L16.5776 41.7393C16.4433 41.6614 16.2839 41.6334 16.1552 41.7055C14.9168 42.4073 14.6885 42.5006 13.5268 42.9033C13.241 43.0029 12.8194 43.1757 13.6882 43.6627L19.5134 47.1086C20.0711 47.4314 20.7049 47.5991 21.3426 47.5991C21.989 47.5991 22.622 47.4314 23.1798 47.1086L40.4549 37.0384C41.5846 36.3802 42.12 35.1631 42.12 33.8566V13.7248C42.12 12.4183 41.5846 11.2 40.4552 10.5469ZM26.7324 30.6665C22.1165 30.6665 21.0997 29.393 20.7608 27.0977C20.7215 26.8505 20.5116 26.5549 20.2601 26.5549H18.0041C17.725 26.5549 17.5007 26.8934 17.5007 27.1713C17.5007 30.1103 19.0985 33.6712 26.7328 33.6712C32.2592 33.6712 35.4276 31.5238 35.4276 27.7236C35.4276 23.9556 32.8819 22.9668 27.5224 22.2575C22.1051 21.5414 21.5548 21.1797 21.5548 19.9105C21.5548 18.8642 22.0209 17.4688 26.0321 17.4688C29.6162 17.4688 30.9373 18.2379 31.4809 20.6537C31.5274 20.8809 31.7348 21.0438 31.9691 21.0438H34.2341C34.3734 21.0438 34.5065 20.9876 34.6041 20.888C34.6986 20.7809 34.7486 20.6467 34.736 20.5026C34.3853 16.3426 31.6215 14.4039 26.0317 14.4039C21.0596 14.4039 18.0935 16.5036 18.0935 20.0231C18.0935 23.8407 21.0446 24.8957 25.8176 25.3676C31.5274 25.9274 31.9714 26.7619 31.9714 27.885C31.9714 29.8355 30.4055 30.6665 26.7324 30.6665Z" fill="#83CD29"/>
</svg>
