<svg width="43" height="26" viewBox="0 0 43 26" fill="none" xmlns="http://www.w3.org/2000/svg">
<path d="M20.8315 25.7918C20.6886 25.7918 20.5553 25.7538 20.4316 25.6871L19.1653 24.935C18.9749 24.8302 19.0701 24.7922 19.1272 24.7731C19.3843 24.6874 19.4319 24.6684 19.6985 24.5161C19.727 24.497 19.7651 24.5065 19.7937 24.5256L20.7648 25.1064C20.8029 25.1254 20.8505 25.1254 20.8791 25.1064L24.6779 22.907C24.7159 22.888 24.735 22.8499 24.735 22.8023V18.4132C24.735 18.3656 24.7159 18.3275 24.6779 18.3085L20.8791 16.1187C20.841 16.0997 20.7934 16.0997 20.7648 16.1187L16.966 18.3085C16.9279 18.3275 16.9089 18.3752 16.9089 18.4132V22.8023C16.9089 22.8404 16.9279 22.888 16.966 22.907L18.0038 23.5069C18.5655 23.7925 18.9178 23.4593 18.9178 23.126V18.7941C18.9178 18.7369 18.9654 18.6798 19.032 18.6798H19.5176C19.5747 18.6798 19.6318 18.7274 19.6318 18.7941V23.126C19.6318 23.8782 19.2224 24.3161 18.5084 24.3161C18.2894 24.3161 18.118 24.3161 17.6325 24.0781L16.6328 23.5069C16.3852 23.364 16.2329 23.0975 16.2329 22.8118V18.4228C16.2329 18.1371 16.3852 17.8706 16.6328 17.7277L20.4316 15.5284C20.6696 15.3951 20.9933 15.3951 21.2313 15.5284L25.0301 17.7277C25.2777 17.8706 25.43 18.1371 25.43 18.4228V22.8118C25.43 23.0975 25.2777 23.364 25.0301 23.5069L21.2313 25.7062C21.1076 25.7633 20.9647 25.7918 20.8315 25.7918ZM22.0025 22.7738C20.3364 22.7738 19.9936 22.0121 19.9936 21.3647C19.9936 21.3076 20.0412 21.2504 20.1079 21.2504H20.603C20.6601 21.2504 20.7077 21.2885 20.7077 21.3456C20.7838 21.8502 21.0028 22.0978 22.012 22.0978C22.8118 22.0978 23.1545 21.9169 23.1545 21.4885C23.1545 21.2409 23.0593 21.06 21.8121 20.9362C20.7743 20.8315 20.1269 20.603 20.1269 19.7747C20.1269 19.0035 20.7743 18.5465 21.8597 18.5465C23.0784 18.5465 23.6782 18.9654 23.7543 19.8794C23.7543 19.908 23.7448 19.9366 23.7258 19.9651C23.7067 19.9842 23.6782 20.0032 23.6496 20.0032H23.1545C23.1069 20.0032 23.0593 19.9651 23.0498 19.9175C22.9355 19.3939 22.6404 19.2225 21.8597 19.2225C20.9838 19.2225 20.8791 19.5272 20.8791 19.7557C20.8791 20.0318 21.0028 20.1175 22.1834 20.2698C23.3545 20.4221 23.9067 20.6411 23.9067 21.4599C23.8971 22.2977 23.2116 22.7738 22.0025 22.7738Z" fill="#539E43"/>
<path d="M9.04475 8.62583C9.04475 8.45446 8.94954 8.2926 8.79721 8.20692L4.76039 5.88385C4.69375 5.84576 4.61758 5.82672 4.54142 5.8172H4.50333C4.42717 5.8172 4.351 5.84576 4.28436 5.88385L0.247541 8.20692C0.0952079 8.2926 0 8.45446 0 8.62583L0.00952079 14.8715C0.00952079 14.9572 0.0571247 15.0428 0.133291 15.0809C0.209457 15.1285 0.304665 15.1285 0.371311 15.0809L2.77055 13.7099C2.92288 13.6242 3.01809 13.4624 3.01809 13.291V10.3681C3.01809 10.1968 3.1133 10.0349 3.26563 9.94922L4.28436 9.35893C4.36052 9.31133 4.44621 9.29229 4.5319 9.29229C4.61758 9.29229 4.70327 9.31133 4.76992 9.35893L5.78864 9.94922C5.94097 10.0349 6.03618 10.1968 6.03618 10.3681V13.291C6.03618 13.4624 6.13139 13.6242 6.28372 13.7099L8.68296 15.0809C8.75913 15.1285 8.85433 15.1285 8.9305 15.0809C9.00667 15.0428 9.05427 14.9572 9.05427 14.8715L9.04475 8.62583Z" fill="#333333"/>
<path d="M28.4481 0.0285624C28.372 -0.00952079 28.2768 -0.00952079 28.2101 0.0285624C28.134 0.0761663 28.0864 0.152333 28.0864 0.23802V6.42653C28.0864 6.48366 28.0578 6.54078 28.0007 6.57887C27.9435 6.60743 27.8864 6.60743 27.8293 6.57887L26.8201 5.9981C26.6678 5.91241 26.4869 5.91241 26.3345 5.9981L22.2977 8.33069C22.1454 8.41638 22.0502 8.57823 22.0502 8.74961V13.4053C22.0502 13.5766 22.1454 13.7385 22.2977 13.8242L26.3345 16.1568C26.4869 16.2425 26.6678 16.2425 26.8201 16.1568L30.8569 13.8242C31.0092 13.7385 31.1044 13.5766 31.1044 13.4053V1.79943C31.1044 1.61853 31.0092 1.45668 30.8569 1.37099L28.4481 0.0285624ZM28.0768 11.8724C28.0768 11.92 28.0578 11.9581 28.0197 11.9772L26.6392 12.7769C26.6011 12.7959 26.5535 12.7959 26.5154 12.7769L25.1349 11.9772C25.0968 11.9581 25.0778 11.9105 25.0778 11.8724V10.2729C25.0778 10.2253 25.0968 10.1872 25.1349 10.1682L26.5154 9.36846C26.5535 9.34941 26.6011 9.34941 26.6392 9.36846L28.0197 10.1682C28.0578 10.1872 28.0768 10.2348 28.0768 10.2729V11.8724Z" fill="#333333"/>
<path d="M41.8819 10.2349C42.0343 10.1492 42.1199 9.98731 42.1199 9.81594V8.68296C42.1199 8.51159 42.0247 8.34973 41.8819 8.26405L37.8737 5.94097C37.7213 5.85529 37.5404 5.85529 37.3881 5.94097L33.3513 8.27357C33.199 8.35926 33.1038 8.52111 33.1038 8.69248V13.3481C33.1038 13.5195 33.199 13.6814 33.3513 13.7671L37.3596 16.0521C37.5119 16.1377 37.6928 16.1377 37.8356 16.0521L40.2634 14.7001C40.3396 14.662 40.3872 14.5763 40.3872 14.4906C40.3872 14.405 40.3396 14.3193 40.2634 14.2812L36.2075 11.9486C36.1314 11.901 36.0838 11.8248 36.0838 11.7391V10.2825C36.0838 10.1968 36.1314 10.1111 36.2075 10.073L37.4738 9.34942C37.55 9.30181 37.6452 9.30181 37.7213 9.34942L38.9876 10.073C39.0638 10.1206 39.1114 10.1968 39.1114 10.2825V11.4249C39.1114 11.5106 39.159 11.5963 39.2351 11.6344C39.3113 11.682 39.4065 11.682 39.4827 11.6344L41.8819 10.2349Z" fill="#333333"/>
<path d="M37.569 10.0159C37.5976 9.99683 37.6357 9.99683 37.6642 10.0159L38.4354 10.4633C38.464 10.4824 38.483 10.5109 38.483 10.549V11.444C38.483 11.4821 38.464 11.5106 38.4354 11.5297L37.6642 11.9772C37.6357 11.9962 37.5976 11.9962 37.569 11.9772L36.7978 11.5297C36.7693 11.5106 36.7502 11.4821 36.7502 11.444V10.549C36.7502 10.5109 36.7693 10.4824 36.7978 10.4633L37.569 10.0159Z" fill="#539E43"/>
<path d="M15.7949 5.96002C15.6426 5.87433 15.4617 5.87433 15.3094 5.96002L11.3011 8.27357C11.1488 8.35926 11.0631 8.52111 11.0631 8.69248V13.3291C11.0631 13.5005 11.1583 13.6623 11.3011 13.748L15.3094 16.0616C15.4617 16.1473 15.6426 16.1473 15.7949 16.0616L19.8032 13.748C19.9555 13.6623 20.0412 13.5005 20.0412 13.3291V8.69248C20.0412 8.52111 19.946 8.35926 19.8032 8.27357L15.7949 5.96002Z" fill="url(#paint0_linear_2_243)"/>
<mask id="mask0_2_243" style="mask-type:luminance" maskUnits="userSpaceOnUse" x="11" y="5" width="10" height="12">
<path d="M15.7949 5.96002C15.6426 5.87433 15.4617 5.87433 15.3094 5.96002L11.3011 8.27357C11.1488 8.35926 11.0631 8.52111 11.0631 8.69248V13.3291C11.0631 13.5005 11.1583 13.6623 11.3011 13.748L15.3094 16.0616C15.4617 16.1473 15.6426 16.1473 15.7949 16.0616L19.8032 13.748C19.9555 13.6623 20.0412 13.5005 20.0412 13.3291V8.69248C20.0412 8.52111 19.946 8.35926 19.8032 8.27357L15.7949 5.96002Z" fill="white"/>
</mask>
<g mask="url(#mask0_2_243)">
<path d="M19.8127 8.27357L15.7854 5.96002C15.7473 5.94098 15.6997 5.92194 15.6617 5.91241L11.1488 13.6433C11.1869 13.6909 11.2345 13.729 11.2821 13.7575L15.3094 16.0711C15.4236 16.1377 15.5569 16.1568 15.6807 16.1187L19.9175 8.36878C19.8889 8.3307 19.8508 8.30213 19.8127 8.27357Z" fill="url(#paint1_linear_2_243)"/>
</g>
<mask id="mask1_2_243" style="mask-type:luminance" maskUnits="userSpaceOnUse" x="11" y="5" width="10" height="12">
<path d="M15.7949 5.96002C15.6426 5.87433 15.4617 5.87433 15.3094 5.96002L11.3011 8.27357C11.1488 8.35926 11.0631 8.52111 11.0631 8.69248V13.3291C11.0631 13.5005 11.1583 13.6623 11.3011 13.748L15.3094 16.0616C15.4617 16.1473 15.6426 16.1473 15.7949 16.0616L19.8032 13.748C19.9555 13.6623 20.0412 13.5005 20.0412 13.3291V8.69248C20.0412 8.52111 19.946 8.35926 19.8032 8.27357L15.7949 5.96002Z" fill="white"/>
</mask>
<g mask="url(#mask1_2_243)">
<path fill-rule="evenodd" clip-rule="evenodd" d="M19.8223 13.748C19.9365 13.6814 20.0222 13.5671 20.0603 13.4434L15.6426 5.90289C15.5284 5.88385 15.4046 5.89337 15.2999 5.96001L11.3011 8.26405L15.6141 16.1282C15.6712 16.1187 15.7378 16.0997 15.795 16.0711L19.8223 13.748Z" fill="url(#paint2_linear_2_243)"/>
<path fill-rule="evenodd" clip-rule="evenodd" d="M19.8222 13.748L15.8044 16.0616C15.7473 16.0901 15.6902 16.1092 15.6235 16.1187L15.6997 16.2615L20.1554 13.6814V13.6243L20.0412 13.4338C20.0221 13.5671 19.9365 13.6814 19.8222 13.748Z" fill="url(#paint3_linear_2_243)"/>
<path fill-rule="evenodd" clip-rule="evenodd" d="M19.8222 13.748L15.8044 16.0616C15.7473 16.0901 15.6902 16.1092 15.6235 16.1187L15.6997 16.2615L20.1554 13.6814V13.6243L20.0412 13.4338C20.0221 13.5671 19.9365 13.6814 19.8222 13.748Z" fill="url(#paint4_linear_2_243)"/>
</g>
<defs>
<linearGradient id="paint0_linear_2_243" x1="623.266" y1="184.788" x2="183.906" y2="875.123" gradientUnits="userSpaceOnUse">
<stop stop-color="#41873F"/>
<stop offset="0.3288" stop-color="#418B3D"/>
<stop offset="0.6352" stop-color="#419637"/>
<stop offset="0.9319" stop-color="#3FA92D"/>
<stop offset="1" stop-color="#3FAE2A"/>
</linearGradient>
<linearGradient id="paint1_linear_2_243" x1="390.626" y1="570.052" x2="1490.93" y2="-27.7421" gradientUnits="userSpaceOnUse">
<stop offset="0.1376" stop-color="#41873F"/>
<stop offset="0.4032" stop-color="#54A044"/>
<stop offset="0.7136" stop-color="#66B848"/>
<stop offset="0.9081" stop-color="#6CC04A"/>
</linearGradient>
<linearGradient id="paint2_linear_2_243" x1="-27.1409" y1="517.565" x2="900.346" y2="517.565" gradientUnits="userSpaceOnUse">
<stop offset="0.0919165" stop-color="#6CC04A"/>
<stop offset="0.2864" stop-color="#66B848"/>
<stop offset="0.5968" stop-color="#54A044"/>
<stop offset="0.8624" stop-color="#41873F"/>
</linearGradient>
<linearGradient id="paint3_linear_2_243" x1="-455.062" y1="155.596" x2="472.424" y2="155.596" gradientUnits="userSpaceOnUse">
<stop offset="0.0919165" stop-color="#6CC04A"/>
<stop offset="0.2864" stop-color="#66B848"/>
<stop offset="0.5968" stop-color="#54A044"/>
<stop offset="0.8624" stop-color="#41873F"/>
</linearGradient>
<linearGradient id="paint4_linear_2_243" x1="607.548" y1="-583.402" x2="372.58" y2="647.83" gradientUnits="userSpaceOnUse">
<stop stop-color="#41873F"/>
<stop offset="0.3288" stop-color="#418B3D"/>
<stop offset="0.6352" stop-color="#419637"/>
<stop offset="0.9319" stop-color="#3FA92D"/>
<stop offset="1" stop-color="#3FAE2A"/>
</linearGradient>
</defs>
</svg>
