<svg width="40" height="42" viewBox="0 0 40 42" fill="none" xmlns="http://www.w3.org/2000/svg">
<path d="M16.7756 12.3856C16.3337 12.324 15.9333 12.381 15.7308 12.5343C15.6168 12.6206 15.5816 12.7205 15.5721 12.7894C15.5467 12.9716 15.6744 13.1731 15.7528 13.277C15.9748 13.5712 16.2991 13.7734 16.6201 13.818C16.6666 13.8244 16.7128 13.8275 16.7588 13.8275C17.2941 13.8275 17.7807 13.4108 17.8236 13.1031C17.8772 12.7179 17.3179 12.461 16.7756 12.3856Z" fill="white"/>
<path d="M31.4184 12.3978C31.3763 12.0958 30.8387 12.0097 30.3287 12.0806C29.8196 12.1516 29.3257 12.3814 29.3669 12.6841C29.4001 12.9195 29.8249 13.3213 30.3281 13.3212C30.3705 13.3212 30.4134 13.3184 30.4566 13.3123C30.7924 13.2658 31.0388 13.0526 31.1558 12.9296C31.3341 12.7424 31.4372 12.5335 31.4184 12.3978Z" fill="white"/>
<path d="M39.82 25.3324C39.633 24.7668 39.0311 24.5848 38.0309 24.7914C35.0614 25.4042 33.998 24.9797 33.6487 24.7225C35.9569 21.2062 37.8557 16.9559 38.8801 12.9901C39.3654 11.1116 39.6334 9.36711 39.6552 7.94524C39.6794 6.38433 39.4137 5.23753 38.8654 4.53693C36.655 1.7125 33.411 0.197511 29.484 0.155875C26.7844 0.12555 24.5035 0.816495 24.0613 1.01073C23.1301 0.779149 22.1149 0.636982 21.0099 0.618845C18.9832 0.586082 17.2314 1.07128 15.781 2.06022C15.151 1.82581 13.5228 1.26689 11.5318 0.946181C8.08931 0.391846 5.35391 0.811815 3.40179 2.19478C1.07251 3.84501 -0.00281557 6.79484 0.20556 10.9622C0.275669 12.3643 1.07446 16.6774 2.33524 20.8081C3.99474 26.2447 5.79855 29.3224 7.69665 29.9554C7.91877 30.0295 8.17502 30.0814 8.45741 30.0814C9.14982 30.0814 9.99863 29.7693 10.8819 28.7075C12.3489 26.9426 13.7186 25.4637 14.2235 24.9263C14.9696 25.3269 15.7892 25.5505 16.6276 25.5729C16.6291 25.5949 16.6313 25.6168 16.6333 25.6386C16.4651 25.8381 16.3271 26.013 16.2095 26.1623C15.6287 26.8996 15.5078 27.0531 13.6379 27.4382C13.1061 27.5479 11.6933 27.839 11.6728 28.8292C11.6502 29.9111 13.3425 30.3655 13.5354 30.4136C14.2073 30.5818 14.8546 30.6648 15.4719 30.6648C16.9733 30.6647 18.2945 30.1713 19.3504 29.2166C19.3178 33.0736 19.4787 36.8742 19.9418 38.0322C20.321 38.98 21.2476 41.2968 24.1745 41.2966C24.6038 41.2966 25.0767 41.2467 25.5967 41.1353C28.6512 40.4803 29.9776 39.1303 30.4908 36.154C30.7654 34.5633 31.2367 30.7648 31.4582 28.7273C31.9259 28.8732 32.5282 28.94 33.1791 28.9399C34.5368 28.9399 36.1034 28.6515 37.0859 28.1954C38.1895 27.6829 40.1812 26.425 39.82 25.3324ZM32.5458 11.5642C32.5357 12.1657 32.4529 12.7117 32.3651 13.2818C32.2707 13.8948 32.173 14.5286 32.1485 15.2981C32.1242 16.0468 32.2177 16.8253 32.3082 17.5781C32.4909 19.0987 32.6784 20.6641 31.9525 22.2089C31.8396 22.0085 31.7307 21.7899 31.6309 21.5478C31.5407 21.3291 31.3448 20.9777 31.0736 20.4915C30.0182 18.5988 27.5467 14.1667 28.8119 12.3581C29.1887 11.8196 30.145 11.2663 32.5458 11.5642ZM29.6359 1.37395C33.1544 1.45167 35.9375 2.76793 37.9082 5.28599C39.4196 7.21744 37.7553 16.0059 32.9373 23.5876C32.8897 23.5272 32.8413 23.4662 32.7911 23.4036C32.7711 23.3785 32.7508 23.353 32.7302 23.3273C33.9752 21.2711 33.7317 19.2368 33.515 17.4331C33.426 16.6929 33.342 15.9938 33.3633 15.3372C33.3854 14.641 33.4775 14.0441 33.5664 13.4669C33.6759 12.7554 33.7872 12.0194 33.7565 11.1517C33.7794 11.0607 33.7886 10.9532 33.7767 10.8255C33.6983 9.99341 32.7483 7.50333 30.812 5.24923C29.753 4.01653 28.2083 2.63688 26.0994 1.70636C27.0065 1.51836 28.247 1.34304 29.6359 1.37395ZM9.94724 27.9304C8.9742 29.1003 8.30218 28.8761 8.08122 28.8025C6.64131 28.3222 4.9707 25.279 3.49774 20.4532C2.22321 16.2776 1.47834 12.0788 1.41944 10.9014C1.2333 7.17775 2.13594 4.58256 4.10239 3.188C7.30262 0.918489 12.5642 2.27688 14.6784 2.96587C14.6479 2.99581 14.6163 3.02389 14.5862 3.05431C11.117 6.55809 11.1992 12.5443 11.2077 12.9102C11.2074 13.0514 11.2192 13.2513 11.2355 13.5262C11.2952 14.533 11.4063 16.4069 11.1095 18.5291C10.8337 20.5011 11.4416 22.4313 12.777 23.8247C12.9153 23.9689 13.0596 24.1043 13.2087 24.2318C12.6142 24.8684 11.3223 26.2762 9.94724 27.9304ZM13.6546 22.9837C12.5782 21.8607 12.0894 20.2985 12.3133 18.6974C12.6267 16.4556 12.5109 14.5032 12.4488 13.4543C12.4401 13.3075 12.4324 13.1789 12.4279 13.0774C12.9347 12.6281 15.2834 11.3695 16.9583 11.7533C17.7228 11.9285 18.1884 12.4489 18.382 13.3442C19.3842 17.9791 18.5147 19.9109 17.8161 21.4632C17.6721 21.7831 17.536 22.0853 17.4198 22.3981L17.3298 22.6399C17.1018 23.2511 16.8897 23.8194 16.7583 24.3591C15.6141 24.3556 14.501 23.8669 13.6546 22.9837ZM13.8302 29.2345C13.4962 29.151 13.1956 29.006 13.0193 28.8858C13.1666 28.8164 13.4287 28.7222 13.8832 28.6286C16.0829 28.1757 16.4225 27.8562 17.1643 26.9142C17.3345 26.6984 17.5273 26.4535 17.7942 26.1553C17.7943 26.1551 17.7944 26.155 17.7945 26.1549C18.1923 25.7097 18.3741 25.7852 18.704 25.922C18.9714 26.0327 19.2317 26.3677 19.3373 26.7365C19.3872 26.9106 19.4434 27.2413 19.2598 27.4984C17.7101 29.6682 15.452 29.6403 13.8302 29.2345ZM25.3419 39.9468C22.6509 40.5234 21.6982 39.1504 21.0703 37.5808C20.6651 36.5674 20.466 31.9979 20.6073 26.9517C20.6091 26.8845 20.5996 26.8197 20.581 26.7587C20.5649 26.641 20.5402 26.522 20.5058 26.4021C20.2956 25.6679 19.7836 25.0537 19.1693 24.7991C18.9252 24.698 18.4772 24.5124 17.9388 24.6501C18.0537 24.1771 18.2528 23.643 18.4686 23.0646L18.5592 22.8212C18.6612 22.5469 18.789 22.2628 18.9244 21.9621C19.6555 20.3378 20.6568 18.1131 19.5701 13.0873C19.163 11.2049 17.8037 10.2856 15.743 10.4991C14.5076 10.6269 13.3775 11.1254 12.8138 11.4112C12.6926 11.4726 12.5817 11.5319 12.4782 11.5897C12.6355 9.69298 13.23 6.14845 15.4535 3.90586C16.8535 2.49393 18.718 1.79665 20.9898 1.83419C25.4659 1.90752 28.3363 4.20462 29.9562 6.11881C31.352 7.76836 32.1079 9.42991 32.4096 10.326C30.1411 10.0954 28.5982 10.5433 27.816 11.6614C26.1144 14.0936 28.7469 18.8146 30.012 21.0834C30.244 21.4993 30.4443 21.8586 30.5073 22.0113C30.9193 23.0098 31.4526 23.6764 31.8421 24.163C31.9614 24.3121 32.0773 24.4567 32.1653 24.583C31.4783 24.7812 30.2441 25.2388 30.3565 27.5264C30.2659 28.6744 29.6207 34.0486 29.2931 35.9474C28.8606 38.4559 27.9375 39.3904 25.3419 39.9468ZM36.5741 27.093C35.8715 27.4191 34.6958 27.6638 33.5788 27.7163C32.3451 27.7741 31.7172 27.5781 31.5695 27.4576C31.5 26.032 32.0308 25.883 32.5923 25.7253C32.6806 25.7005 32.7667 25.6764 32.8497 25.6473C32.9014 25.6893 32.958 25.7311 33.0199 25.7719C34.0115 26.4264 35.7801 26.497 38.2768 25.9817C38.2859 25.9797 38.2951 25.978 38.3042 25.9761C37.9675 26.291 37.3912 26.7136 36.5741 27.093Z" fill="white"/>
</svg>
