<svg width="43" height="43" viewBox="0 0 43 43" fill="none" xmlns="http://www.w3.org/2000/svg">
<path d="M42.12 21.0603C42.12 32.6909 32.6909 42.12 21.0598 42.12C9.42861 42.12 0 32.691 0 21.0603C0 9.42879 9.42846 0 21.0596 0C32.6908 0 42.12 9.42879 42.12 21.0603Z" fill="#DD4814"/>
<path d="M6.7395 18.2486C5.18629 18.2486 3.92773 19.5072 3.92773 21.0604C3.92773 22.613 5.18629 23.8717 6.7395 23.8717C8.29211 23.8717 9.55081 22.613 9.55081 21.0604C9.55081 19.507 8.29226 18.2486 6.7395 18.2486ZM26.815 31.0277C25.4701 31.8041 25.0098 33.523 25.7859 34.8673C26.5624 36.2122 28.2811 36.6728 29.626 35.8964C30.9705 35.1202 31.4311 33.4013 30.6547 32.0565C29.8785 30.7122 28.1594 30.2515 26.815 31.0277ZM12.8468 21.06C12.8468 18.2812 14.2277 15.8268 16.3393 14.3406L14.2837 10.8973C11.823 12.5413 9.99272 15.0545 9.23239 17.9981C10.1205 18.722 10.688 19.8244 10.688 21.0603C10.688 22.2958 10.1205 23.3982 9.23224 24.122C9.99242 27.0658 11.8229 29.5791 14.2835 31.2229L16.3393 27.7794C14.2277 26.2935 12.8468 23.8392 12.8468 21.06ZM21.0601 12.8466C25.351 12.8466 28.8706 16.1366 29.2395 20.3316L33.2467 20.273C33.0495 17.1758 31.6966 14.3945 29.6174 12.3503C28.5485 12.7542 27.3135 12.693 26.2462 12.0766C25.1775 11.4597 24.507 10.419 24.3233 9.28954C23.2844 9.00201 22.1909 8.84525 21.0603 8.84525C19.1158 8.84525 17.2788 9.30172 15.647 10.1101L17.6004 13.6108C18.6519 13.1215 19.8237 12.8466 21.0601 12.8466ZM21.0601 29.2734C19.8236 29.2734 18.6519 28.9985 17.6002 28.5092L15.6466 32.0103C17.2785 32.8184 19.1157 33.275 21.0601 33.275C22.1907 33.275 23.2842 33.1182 24.3233 32.8307C24.507 31.7013 25.1777 30.6605 26.2465 30.0431C27.3138 29.4271 28.5487 29.3659 29.6177 29.7699C31.6968 27.7256 33.0497 24.9443 33.2466 21.847L29.2394 21.7885C28.8707 25.9841 25.351 29.2734 21.0601 29.2734ZM26.8146 11.0921C28.1593 11.8688 29.8783 11.408 30.6544 10.0637C31.4309 8.7188 30.9706 6.99991 29.6257 6.22338C28.2811 5.44714 26.5623 5.90777 25.7857 7.25266C25.0095 8.59696 25.4701 10.316 26.8146 11.0921Z" fill="white"/>
</svg>
