<svg width="27" height="30" viewBox="0 0 27 30" fill="none" xmlns="http://www.w3.org/2000/svg">
<path d="M18.7139 18.7857L13.1244 24.3753L7.53479 18.7857C3.34554 18.9673 0 22.3949 0 26.6252V27.1876C0 28.7403 1.2597 30 2.81236 30H23.4364C24.989 30 26.2487 28.7403 26.2487 27.1876V26.6252C26.2487 22.3949 22.9032 18.9673 18.7139 18.7857ZM0.796836 4.67702L1.17182 4.7649V8.18661C0.761681 8.43269 0.468727 8.86041 0.468727 9.37601C0.468727 9.86817 0.738245 10.2783 1.11909 10.5302L0.205068 14.1805C0.105464 14.5847 0.328109 15.0007 0.650359 15.0007H3.09946C3.42171 15.0007 3.64435 14.5847 3.54475 14.1805L2.63073 10.5302C3.01157 10.2783 3.28109 9.86817 3.28109 9.37601C3.28109 8.86041 2.98814 8.43269 2.578 8.18661V5.10473L6.445 6.03633C5.94112 7.04409 5.62472 8.16903 5.62472 9.37601C5.62472 13.5184 8.98198 16.8756 13.1244 16.8756C17.2667 16.8756 20.624 13.5184 20.624 9.37601C20.624 8.16903 20.3135 7.04409 19.8037 6.03633L25.446 4.67702C26.5124 4.41922 26.5124 3.0892 25.446 2.8314L14.2903 0.136224C13.5286 -0.0454079 12.7259 -0.0454079 11.9643 0.136224L0.796836 2.82555C-0.263659 3.08335 -0.263659 4.41922 0.796836 4.67702Z" fill="white"/>
</svg>
