<svg width="30" height="31" viewBox="0 0 30 31" fill="none" xmlns="http://www.w3.org/2000/svg">
<path d="M0 30.1289L2.11984 22.3943C0.816423 20.1313 0.121747 17.5603 0.128909 14.932C0.128909 6.6961 6.83217 0 15.068 0C19.0642 0 22.8169 1.55407 25.6314 4.37574C28.4531 7.19742 30.0071 10.9501 30 14.9391C30 23.175 23.2967 29.8711 15.0609 29.8711H15.0537C12.5543 29.8711 10.0979 29.2408 7.91358 28.052L0 30.1289ZM8.28598 25.3449L8.73716 25.6171C10.6421 26.7486 12.8264 27.343 15.0537 27.3502H15.0609C21.9002 27.3502 27.4719 21.7856 27.4719 14.9391C27.4719 11.6233 26.1828 8.50799 23.841 6.15898C21.4991 3.80998 18.3767 2.52089 15.0609 2.52089C8.21436 2.52089 2.64263 8.08546 2.64263 14.932C2.64263 17.2738 3.29434 19.5583 4.54046 21.535L4.83409 22.0076L3.5808 26.5839L8.28598 25.3449Z" fill="black" fill-opacity="0.24"/>
<path d="M0.677612 29.3305L2.70041 21.9537C1.45561 19.7965 0.797848 17.3423 0.797848 14.8386C0.797848 6.98785 7.19158 0.601196 15.0352 0.601196C18.8474 0.601196 22.4191 2.08647 25.1067 4.77409C27.7944 7.46172 29.2726 11.0405 29.2726 14.8456C29.2726 22.6963 22.8788 29.083 15.0352 29.083H15.0281C12.6446 29.083 10.3036 28.4818 8.22419 27.3502L0.677612 29.3305Z" fill="url(#paint0_linear_11_120)"/>
<path d="M0.161377 29.8468L2.2549 22.2083C0.967665 19.9733 0.281613 17.4342 0.288686 14.8385C0.288686 6.7049 6.90874 0.0919189 15.0424 0.0919189C18.9889 0.0919189 22.695 1.6267 25.4746 4.41334C28.2612 7.19999 29.796 10.9061 29.7889 14.8456C29.7889 22.9792 23.1689 29.5922 15.0353 29.5922H15.0282C12.5598 29.5922 10.1339 28.9698 7.97672 27.7957L0.161377 29.8468ZM8.3445 25.1222L8.79008 25.391C10.6714 26.5085 12.8286 27.0955 15.0282 27.1026H15.0353C21.7897 27.1026 27.2923 21.6071 27.2923 14.8456C27.2923 11.5709 26.0192 8.4943 23.7064 6.17445C21.3936 3.8546 18.3099 2.58151 15.0353 2.58151C8.27377 2.58151 2.77121 8.07701 2.77121 14.8385C2.77121 17.1513 3.41482 19.4075 4.64547 21.3595L4.93545 21.8263L3.69773 26.3458L8.3445 25.1222Z" fill="white"/>
<path d="M11.3504 8.664C11.0746 8.04868 10.7846 8.03453 10.5229 8.02746C10.3107 8.02039 10.0632 8.02039 9.81563 8.02039C9.56808 8.02039 9.17201 8.11233 8.83252 8.48011C8.49303 8.84789 7.54529 9.73905 7.54529 11.5567C7.54529 13.3674 8.86788 15.1214 9.05178 15.3689C9.23567 15.6165 11.605 19.457 15.3465 20.9351C18.4585 22.1658 19.095 21.9183 19.7669 21.8546C20.4459 21.7909 21.9453 20.9634 22.2565 20.1006C22.5606 19.2377 22.5606 18.5021 22.4687 18.3465C22.3768 18.1909 22.1292 18.099 21.7614 17.9151C21.3936 17.7312 19.583 16.8401 19.2435 16.7127C18.9041 16.5854 18.6565 16.5289 18.416 16.8966C18.1685 17.2644 17.4612 18.0919 17.249 18.3395C17.0369 18.587 16.8176 18.6153 16.4498 18.4314C16.082 18.2475 14.8938 17.8585 13.4864 16.5996C12.3901 15.6235 11.6475 14.4141 11.4353 14.0463C11.2231 13.6786 11.4141 13.4805 11.598 13.2966C11.7606 13.134 11.9657 12.8652 12.1496 12.653C12.3335 12.4408 12.3972 12.2852 12.5174 12.0377C12.6376 11.7901 12.5811 11.578 12.4891 11.3941C12.3972 11.2102 11.6757 9.39249 11.3504 8.664Z" fill="white"/>
<defs>
<linearGradient id="paint0_linear_11_120" x1="3660.72" y1="7383.52" x2="3660.72" y2="0.1884" gradientUnits="userSpaceOnUse">
<stop stop-color="#20B038"/>
<stop offset="1" stop-color="#60D66A"/>
</linearGradient>
</defs>
</svg>
